<?xml version="1.0" encoding="UTF-8" standalone="no"?>
<!-- Created with Inkscape (http://www.inkscape.org/) -->
<svg
        xmlns:dc="http://purl.org/dc/elements/1.1/"
        xmlns:cc="http://web.resource.org/cc/"
        xmlns:rdf="http://www.w3.org/1999/02/22-rdf-syntax-ns#"
        xmlns="http://www.w3.org/2000/svg"
        width="200"
        height="250"
        id="svg2">
    <defs
            id="defs4" />
    <metadata
            id="metadata7">
        <rdf:RDF>
            <cc:Work
                    rdf:about="">
                <dc:format>image/svg+xml</dc:format>
                <dc:type
                        rdf:resource="http://purl.org/dc/dcmitype/StillImage" />
            </cc:Work>
        </rdf:RDF>
    </metadata>
    <g
            id="layer1">
        <path
                style="fill:#ffffff;fill-opacity:1;fill-rule:evenodd;stroke:#000000;stroke-width:2;stroke-linecap:butt;stroke-linejoin:miter;stroke-opacity:1;stroke-miterlimit:4;stroke-dasharray:none"
                d="M 199,10 C 199,5 195,1 190,1 L 10,1 C 5,1 1,5 1,10 L 1,240 C 1,245 5,249 10,249 L 190,249 C 195,249 199,245 199,240 L 199,10 z "
                id="path3229"/>
        <text
       xml:space="preserve"
       style="font-size:32px;font-style:normal;font-variant:normal;font-weight:normal;font-stretch:normal;text-align:center;line-height:125%;writing-mode:lr-tb;text-anchor:middle;fill:#ff0000;fill-opacity:1;stroke:#ff0000;stroke-width:1px;stroke-linecap:butt;stroke-linejoin:miter;stroke-opacity:1;font-family:Nimbus Roman No9 L"
       x="21.2195"
       y="40"
       id="text3225"><tspan
         id="tspan3227"
         x="21.2195"
         y="40"
         style="font-size:32px;font-style:normal;font-variant:normal;font-weight:normal;font-stretch:normal;text-align:center;line-height:125%;writing-mode:lr-tb;text-anchor:middle;fill:#ff0000;fill-opacity:1;stroke:#ff0000;stroke-opacity:1;font-family:Nimbus Roman No9 L">A</tspan></text>
        <path
                style="fill:#ff0000;fill-opacity:1;fill-rule:evenodd;stroke:#ff0000;stroke-width:1px;stroke-linecap:butt;stroke-linejoin:miter;stroke-opacity:1"
                d="M 177.3155,205.4 C 177.3155,206.6 175.3155,209 173.3155,209 C 171.3155,209 169.3155,207.4 169.3155,204.6 C 169.3155,200.2 175.7155,193 177.3155,191 C 178.9155,193 185.3155,200.2 185.3155,204.6 C 185.3155,207.4 183.3155,209 181.3155,209 C 179.30552,209 177.3155,206.6 177.3155,205.4 z "
                id="path3314"/>
        <path
                style="fill:#ff0000;fill-opacity:1;fill-rule:evenodd;stroke:#ff0000;stroke-width:1px;stroke-linecap:butt;stroke-linejoin:miter;stroke-opacity:1"
                d="M 21.3155,47.1 C 21.3155,45.9 19.3155,43.5 17.3155,43.5 C 15.3155,43.5 13.3155,45.1 13.3155,47.9 C 13.3155,52.3 19.7155,59.5 21.3155,61.5 C 22.9155,59.5 29.3155,52.3 29.3155,47.9 C 29.3155,45.1 27.3155,43.5 25.3155,43.5 C 23.30552,43.5 21.3155,45.9 21.3155,47.1 z "
                id="path3316"/>
        <text
       xml:space="preserve"
       style="font-size:32px;font-style:normal;font-variant:normal;font-weight:normal;font-stretch:normal;text-align:center;line-height:125%;writing-mode:lr-tb;text-anchor:middle;fill:#ff0000;fill-opacity:1;stroke:#ff0000;stroke-width:1px;stroke-linecap:butt;stroke-linejoin:miter;stroke-opacity:1;font-family:Nimbus Roman No9 L"
       x="-177.4115"
       y="-213.752"
       id="text3633"
       transform="scale(-1,-1)"><tspan
         id="tspan3635"
         x="-177.4115"
         y="-213.752"
         style="font-size:32px;font-style:normal;font-variant:normal;font-weight:normal;font-stretch:normal;text-align:center;line-height:125%;writing-mode:lr-tb;text-anchor:middle;fill:#ff0000;fill-opacity:1;stroke:#ff0000;stroke-opacity:1;font-family:Nimbus Roman No9 L">A</tspan></text>
        <path
                style="fill:#ff0000;fill-opacity:1;fill-rule:evenodd;stroke:#ff0000;stroke-width:1px;stroke-linecap:butt;stroke-linejoin:miter;stroke-opacity:1"
                d="M 99.5,99.75 C 99.5,93.75 89.5,81.75 79.5,81.75 C 69.5,81.75 59.5,89.75 59.5,103.75 C 59.5,125.75 91.5,161.75 99.5,171.75 C 107.5,161.75 139.5,125.75 139.5,103.75 C 139.5,89.75 129.5,81.75 119.5,81.75 C 109.45012,81.75 99.5,93.75 99.5,99.75 z "
                id="path3513"/>
    </g>
</svg>
