<?xml version="1.0" encoding="UTF-8" standalone="no"?>
<!-- Created with Inkscape (http://www.inkscape.org/) -->
<svg
        xmlns:dc="http://purl.org/dc/elements/1.1/"
        xmlns:cc="http://creativecommons.org/ns#"
        xmlns:rdf="http://www.w3.org/1999/02/22-rdf-syntax-ns#"
        xmlns="http://www.w3.org/2000/svg"
        width="200"
        height="250"
        id="svg2"
        version="1.0">
    <defs
            id="defs4">
    </defs>
    <metadata
            id="metadata7">
        <rdf:RDF>
            <cc:Work
                    rdf:about="">
                <dc:format>image/svg+xml</dc:format>
                <dc:type
                        rdf:resource="http://purl.org/dc/dcmitype/StillImage" />
            </cc:Work>
        </rdf:RDF>
    </metadata>
    <g
            id="layer1">
        <path
                style="fill:#ffffff;fill-opacity:1;fill-rule:evenodd;stroke:#000000;stroke-width:2;stroke-linecap:butt;stroke-linejoin:miter;stroke-opacity:1;stroke-miterlimit:4;stroke-dasharray:none"
                d="M 199,10 C 199,5 195,1 190,1 L 10,1 C 5,1 1,5 1,10 L 1,240 C 1,245 5,249 10,249 L 190,249 C 195,249 199,245 199,240 L 199,10 z "
                id="path3229"/>
        <text
       xml:space="preserve"
       style="font-size:32px;font-style:normal;font-variant:normal;font-weight:normal;font-stretch:normal;text-align:center;line-height:125%;writing-mode:lr-tb;text-anchor:middle;fill:#ff0000;fill-opacity:1;stroke:#ff0000;stroke-width:1px;stroke-linecap:butt;stroke-linejoin:miter;stroke-opacity:1;font-family:Nimbus Roman No9 L"
       x="21.2195"
       y="40"
       id="text3225"><tspan
         id="tspan3227"
         x="21.2195"
         y="40"
         style="font-size:32px;font-style:normal;font-variant:normal;font-weight:normal;font-stretch:normal;text-align:center;line-height:125%;writing-mode:lr-tb;text-anchor:middle;fill:#000000;fill-opacity:1;stroke:#000000;stroke-opacity:1;font-family:Nimbus Roman No9 L">9</tspan></text>
    <text
       xml:space="preserve"
       style="font-size:32px;font-style:normal;font-variant:normal;font-weight:normal;font-stretch:normal;text-align:center;line-height:125%;writing-mode:lr-tb;text-anchor:middle;fill:#ff0000;fill-opacity:1;stroke:#ff0000;stroke-width:1px;stroke-linecap:butt;stroke-linejoin:miter;stroke-opacity:1;font-family:Nimbus Roman No9 L"
       x="-177.4115"
       y="-213.752"
       id="text3633"
       transform="scale(-1,-1)"><tspan
         id="tspan3635"
         x="-177.4115"
         y="-213.752"
         style="font-size:32px;font-style:normal;font-variant:normal;font-weight:normal;font-stretch:normal;text-align:center;line-height:125%;writing-mode:lr-tb;text-anchor:middle;fill:#000000;fill-opacity:1;stroke:#000000;stroke-opacity:1;font-family:Nimbus Roman No9 L">9</tspan></text>
        <path
                style="fill:#000000;fill-opacity:1;fill-rule:evenodd;stroke:#000000;stroke-width:1px;stroke-linecap:butt;stroke-linejoin:miter;stroke-opacity:1"
                d="M 175.5155,201.2 C 173.1155,202.4 171.9155,208.8 177.5155,208.8 C 183.1155,208.8 181.9155,202.4 179.5155,201.2 C 181.1155,202.4 186.3155,204 186.3155,198.4 C 186.3155,192.8 179.1155,193.2 178.7155,197.6 L 177.9155,197.6 C 177.9155,197.6 178.3155,193.2 179.5155,191.2 L 175.5155,191.2 C 176.7155,193.2 177.1155,197.6 177.1155,197.6 L 176.3155,197.6 C 175.9155,193.2 168.3155,192.8 168.3155,198.4 C 168.3155,203.2 173.9155,202.4 175.5155,201.2 z "
                id="path4940"/>
        <path
                style="fill:#000000;fill-opacity:1;fill-rule:evenodd;stroke:#000000;stroke-width:1px;stroke-linecap:butt;stroke-linejoin:miter;stroke-opacity:1"
                d="M 19.5155,51.3 C 17.1155,50.1 15.9155,43.7 21.5155,43.7 C 27.1155,43.7 25.9155,50.1 23.5155,51.3 C 25.1155,50.1 30.3155,48.5 30.3155,54.1 C 30.3155,59.7 23.1155,59.3 22.7155,54.9 L 21.9155,54.9 C 21.9155,54.9 22.3155,59.3 23.5155,61.3 L 19.5155,61.3 C 20.7155,59.3 21.1155,54.9 21.1155,54.9 L 20.3155,54.9 C 19.9155,59.3 12.3155,59.7 12.3155,54.1 C 12.3155,49.3 17.9155,50.1 19.5155,51.3 z "
                id="path4943"/>
        <path
                style="fill:#000000;fill-opacity:1;fill-rule:evenodd;stroke:#000000;stroke-width:1px;stroke-linecap:butt;stroke-linejoin:miter;stroke-opacity:1"
                d="M 52.5,45 C 46.5,42 43.5,26 57.5,26 C 71.5,26 68.5,42 62.5,45 C 66.5,42 79.5,38 79.5,52 C 79.5,66 61.5,65 60.5,54 L 58.5,54 C 58.5,54 59.5,65 62.5,70 L 52.5,70 C 55.5,65 56.5,54 56.5,54 L 54.5,54 C 53.5,65 34.5,66 34.5,52 C 34.5,40 48.5,42 52.5,45 z "
                id="path5014"/>
        <path
                style="fill:#000000;fill-opacity:1;fill-rule:evenodd;stroke:#000000;stroke-width:1px;stroke-linecap:butt;stroke-linejoin:miter;stroke-opacity:1"
                d="M 137.5,45 C 131.5,42 128.5,26 142.5,26 C 156.5,26 153.5,42 147.5,45 C 151.5,42 164.5,38 164.5,52 C 164.5,66 146.5,65 145.5,54 L 143.5,54 C 143.5,54 144.5,65 147.5,70 L 137.5,70 C 140.5,65 141.5,54 141.5,54 L 139.5,54 C 138.5,65 119.5,66 119.5,52 C 119.5,40 133.5,42 137.5,45 z "
                id="path5016"/>
        <path
                style="fill:#000000;fill-opacity:1;fill-rule:evenodd;stroke:#000000;stroke-width:1px;stroke-linecap:butt;stroke-linejoin:miter;stroke-opacity:1"
                d="M 137.5,208.5 C 131.5,211.5 128.5,227.5 142.5,227.5 C 156.5,227.5 153.5,211.5 147.5,208.5 C 151.5,211.5 164.5,215.5 164.5,201.5 C 164.5,187.5 146.5,188.5 145.5,199.5 L 143.5,199.5 C 143.5,199.5 144.5,188.5 147.5,183.5 L 137.5,183.5 C 140.5,188.5 141.5,199.5 141.5,199.5 L 139.5,199.5 C 138.5,188.5 119.5,187.5 119.5,201.5 C 119.5,213.5 133.5,211.5 137.5,208.5 z "
                id="path5018"/>
        <path
                style="fill:#000000;fill-opacity:1;fill-rule:evenodd;stroke:#000000;stroke-width:1px;stroke-linecap:butt;stroke-linejoin:miter;stroke-opacity:1"
                d="M 52.5,208.5 C 46.5,211.5 43.5,227.5 57.5,227.5 C 71.5,227.5 68.5,211.5 62.5,208.5 C 66.5,211.5 79.5,215.5 79.5,201.5 C 79.5,187.5 61.5,188.5 60.5,199.5 L 58.5,199.5 C 58.5,199.5 59.5,188.5 62.5,183.5 L 52.5,183.5 C 55.5,188.5 56.5,199.5 56.5,199.5 L 54.5,199.5 C 53.5,188.5 34.5,187.5 34.5,201.5 C 34.5,213.5 48.5,211.5 52.5,208.5 z "
                id="path5020"/>
        <path
                style="fill:#000000;fill-opacity:1;fill-rule:evenodd;stroke:#000000;stroke-width:1px;stroke-linecap:butt;stroke-linejoin:miter;stroke-opacity:1"
                d="M 52.5,97.5 C 46.5,94.5 43.5,78.5 57.5,78.5 C 71.5,78.5 68.5,94.5 62.5,97.5 C 66.5,94.5 79.5,90.5 79.5,104.5 C 79.5,118.5 61.5,117.5 60.5,106.5 L 58.5,106.5 C 58.5,106.5 59.5,117.5 62.5,122.5 L 52.5,122.5 C 55.5,117.5 56.5,106.5 56.5,106.5 L 54.5,106.5 C 53.5,117.5 34.5,118.5 34.5,104.5 C 34.5,92.5 48.5,94.5 52.5,97.5 z "
                id="path5105"/>
        <path
                style="fill:#000000;fill-opacity:1;fill-rule:evenodd;stroke:#000000;stroke-width:1px;stroke-linecap:butt;stroke-linejoin:miter;stroke-opacity:1"
                d="M 137.5,97.5 C 131.5,94.5 128.5,78.5 142.5,78.5 C 156.5,78.5 153.5,94.5 147.5,97.5 C 151.5,94.5 164.5,90.5 164.5,104.5 C 164.5,118.5 146.5,117.5 145.5,106.5 L 143.5,106.5 C 143.5,106.5 144.5,117.5 147.5,122.5 L 137.5,122.5 C 140.5,117.5 141.5,106.5 141.5,106.5 L 139.5,106.5 C 138.5,117.5 119.5,118.5 119.5,104.5 C 119.5,92.5 133.5,94.5 137.5,97.5 z "
                id="path5107"/>
        <path
                style="fill:#000000;fill-opacity:1;fill-rule:evenodd;stroke:#000000;stroke-width:1px;stroke-linecap:butt;stroke-linejoin:miter;stroke-opacity:1"
                d="M 95,123.75 C 89,120.75 86,104.75 100,104.75 C 114,104.75 111,120.75 105,123.75 C 109,120.75 122,116.75 122,130.75 C 122,144.75 104,143.75 103,132.75 L 101,132.75 C 101,132.75 102,143.75 105,148.75 L 95,148.75 C 98,143.75 99,132.75 99,132.75 L 97,132.75 C 96,143.75 77,144.75 77,130.75 C 77,118.75 91,120.75 95,123.75 z"
                id="path5144"/>
        <path
                style="fill:#000000;fill-opacity:1;fill-rule:evenodd;stroke:#000000;stroke-width:1px;stroke-linecap:butt;stroke-linejoin:miter;stroke-opacity:1"
                d="M 52.5,156 C 46.5,159 43.5,175 57.5,175 C 71.5,175 68.5,159 62.5,156 C 66.5,159 79.5,163 79.5,149 C 79.5,135 61.5,136 60.5,147 L 58.5,147 C 58.5,147 59.5,136 62.5,131 L 52.5,131 C 55.5,136 56.5,147 56.5,147 L 54.5,147 C 53.5,136 34.5,135 34.5,149 C 34.5,161 48.5,159 52.5,156 z "
                id="path5182"/>
        <path
                style="fill:#000000;fill-opacity:1;fill-rule:evenodd;stroke:#000000;stroke-width:1px;stroke-linecap:butt;stroke-linejoin:miter;stroke-opacity:1"
                d="M 137.5,156 C 131.5,159 128.5,175 142.5,175 C 156.5,175 153.5,159 147.5,156 C 151.5,159 164.5,163 164.5,149 C 164.5,135 146.5,136 145.5,147 L 143.5,147 C 143.5,147 144.5,136 147.5,131 L 137.5,131 C 140.5,136 141.5,147 141.5,147 L 139.5,147 C 138.5,136 119.5,135 119.5,149 C 119.5,161 133.5,159 137.5,156 z "
                id="path5221"/>
    </g>
</svg>
